<svg width="24" height="24" viewBox="0 0 24 24" fill="none" xmlns="http://www.w3.org/2000/svg">
<path fill-rule="evenodd" clip-rule="evenodd" d="M6.25832 2.75C6.25151 2.83243 6.24805 2.91581 6.24805 3C6.24805 4.65685 7.59119 6 9.24805 6H14.748C16.4049 6 17.748 4.65685 17.748 3C17.748 2.91581 17.7446 2.83243 17.7378 2.75H18.5C20.0188 2.75 21.25 3.98122 21.25 5.5V20C21.25 21.5188 20.0188 22.75 18.5 22.75H5.5C3.98122 22.75 2.75 21.5188 2.75 20V5.5C2.75 3.98122 3.98122 2.75 5.5 2.75H6.25832ZM5.75 10C5.75 9.58579 6.08579 9.25 6.5 9.25H10.5C10.9142 9.25 11.25 9.58579 11.25 10C11.25 10.4142 10.9142 10.75 10.5 10.75H6.5C6.08579 10.75 5.75 10.4142 5.75 10ZM18.0303 9.53033C18.3232 9.23744 18.3232 8.76256 18.0303 8.46967C17.7374 8.17678 17.2626 8.17678 16.9697 8.46967L14.5 10.9393L14.0303 10.4697C13.7374 10.1768 13.2626 10.1768 12.9697 10.4697C12.6768 10.7626 12.6768 11.2374 12.9697 11.5303L13.9697 12.5303C14.2626 12.8232 14.7374 12.8232 15.0303 12.5303L18.0303 9.53033ZM5.75 16C5.75 15.5858 6.08579 15.25 6.5 15.25H10.5C10.9142 15.25 11.25 15.5858 11.25 16C11.25 16.4142 10.9142 16.75 10.5 16.75H6.5C6.08579 16.75 5.75 16.4142 5.75 16ZM18.0303 15.5303C18.3232 15.2374 18.3232 14.7626 18.0303 14.4697C17.7374 14.1768 17.2626 14.1768 16.9697 14.4697L14.5 16.9393L14.0303 16.4697C13.7374 16.1768 13.2626 16.1768 12.9697 16.4697C12.6768 16.7626 12.6768 17.2374 12.9697 17.5303L13.9697 18.5303C14.2626 18.8232 14.7374 18.8232 15.0303 18.5303L18.0303 15.5303Z" fill="white"/>
<path d="M7.5 3C7.5 2.0335 8.2835 1.25 9.25 1.25H14.75C15.7165 1.25 16.5 2.0335 16.5 3C16.5 3.9665 15.7165 4.75 14.75 4.75H9.25C8.2835 4.75 7.5 3.9665 7.5 3Z" fill="white"/>
</svg>
